<?xml version="1.0" encoding="UTF-8" standalone="no"?>
<!-- Created with Inkscape (http://www.inkscape.org/) -->

<svg
   width="71.820175mm"
   height="23.608353mm"
   viewBox="0 0 71.820175 23.608353"
   version="1.1"
   id="svg5"
   inkscape:version="1.2 (1:1.2.1+202207142221+cd75a1ee6d)"
   sodipodi:docname="zeus-logo.svg"
   xmlns:inkscape="http://www.inkscape.org/namespaces/inkscape"
   xmlns:sodipodi="http://sodipodi.sourceforge.net/DTD/sodipodi-0.dtd"
   xmlns="http://www.w3.org/2000/svg"
   xmlns:svg="http://www.w3.org/2000/svg">
  <sodipodi:namedview
     id="namedview7"
     pagecolor="#ffffff"
     bordercolor="#000000"
     borderopacity="0.25"
     inkscape:showpageshadow="2"
     inkscape:pageopacity="0.0"
     inkscape:pagecheckerboard="0"
     inkscape:deskcolor="#d1d1d1"
     inkscape:document-units="mm"
     showgrid="false"
     inkscape:zoom="1.5144501"
     inkscape:cx="747.13589"
     inkscape:cy="444.71589"
     inkscape:window-width="1920"
     inkscape:window-height="1016"
     inkscape:window-x="0"
     inkscape:window-y="27"
     inkscape:window-maximized="1"
     inkscape:current-layer="g439" />
  <defs
     id="defs2" />
  <g
     inkscape:label="Layer 1"
     inkscape:groupmode="layer"
     id="layer1"
     transform="translate(-174.45039,-131.45769)">
    <g
       id="g412"
       inkscape:label="g493"
       transform="translate(141.03576,116.99721)"
       style="fill:#ffffff">
      <path
         id="path406"
         style="fill:#ffffff;stroke-width:0.0671852"
         d="M 33.414624,14.460475 V 24.46464 L 43.418787,14.460475 Z m 18.379739,0 -18.379739,18.379739 v 4.848224 h 4.620164 L 56.642586,19.080636 v -4.620161 z m 4.848223,12.995481 -10.232485,10.232482 h 10.232485 z" />
      <g
         aria-label="eus"
         id="text410"
         style="font-weight:500;font-size:34.161px;font-family:Jost;-inkscape-font-specification:'Jost Medium';letter-spacing:0px;stroke-width:2.87909">
        <path
           d="m 66.601762,37.932179 q 2.732879,0 4.680056,-1.058991 1.947177,-1.058991 3.176973,-3.176973 l -3.176973,-1.298118 q -0.751542,1.263957 -1.878855,1.878855 -1.127313,0.614898 -2.630396,0.614898 -1.434762,0 -2.459592,-0.614898 -0.990669,-0.614898 -1.503084,-1.776372 -0.512415,-1.195635 -0.512415,-2.903685 0.03416,-1.70805 0.546576,-2.869524 0.512415,-1.161474 1.503084,-1.776372 0.990669,-0.614898 2.39127,-0.614898 1.161473,0 2.015498,0.512415 0.888186,0.512415 1.36644,1.434762 0.512415,0.922347 0.512415,2.186304 0,0.239127 -0.136644,0.614898 -0.102483,0.34161 -0.204966,0.546576 L 71.418462,28.05965 H 60.760231 v 2.527914 h 13.801043 q 0.03416,-0.136644 0.03416,-0.444093 0.03416,-0.307449 0.03416,-0.580737 0,-2.527914 -0.956508,-4.304286 -0.922347,-1.810533 -2.664558,-2.767041 -1.742211,-0.956508 -4.235963,-0.956508 -2.493753,0 -4.338447,1.02483 -1.844694,0.990669 -2.869524,2.835363 -0.990669,1.844694 -0.990669,4.338447 0,2.459592 0.990669,4.304286 0.990669,1.844694 2.801202,2.869524 1.844694,1.02483 4.235964,1.02483 z"
           id="path516" />
        <path
           d="m 80.394196,31.441589 v -9.56508 h -3.791871 v 9.975012 q 0,2.801202 1.400601,4.44093 1.434762,1.639728 4.065159,1.639728 1.639728,0 2.801202,-0.68322 1.195635,-0.717381 1.947177,-2.083821 v 2.425431 h 3.689388 v -15.71406 h -3.689388 v 9.56508 q 0,1.058991 -0.444093,1.878855 -0.444093,0.785703 -1.229796,1.229796 -0.785703,0.409932 -1.844694,0.409932 -1.468923,0 -2.186304,-0.922347 -0.717381,-0.922347 -0.717381,-2.596236 z"
           id="path518" />
        <path
           d="m 94.747387,32.432258 -2.152143,2.152143 q 0.68322,0.888186 1.673889,1.70805 1.02483,0.785703 2.357109,1.298118 1.36644,0.478254 2.972007,0.478254 2.596241,0 4.099321,-1.332279 1.53724,-1.36644 1.53724,-3.586905 0,-1.434762 -0.68322,-2.322948 -0.64905,-0.888186 -1.74221,-1.503084 -1.09315,-0.614898 -2.39127,-1.127313 -0.956505,-0.375771 -1.742208,-0.717381 -0.751542,-0.34161 -1.229796,-0.751542 -0.444093,-0.444093 -0.444093,-0.990669 0,-0.649059 0.512415,-0.990669 0.512415,-0.34161 1.298118,-0.34161 1.161474,0 2.254624,0.580737 1.09315,0.580737 1.87886,1.503084 l 2.04966,-2.186304 q -0.64906,-0.785703 -1.57141,-1.400601 -0.92235,-0.614898 -2.08382,-0.990669 -1.12731,-0.375771 -2.425431,-0.375771 -1.434762,0 -2.698719,0.478254 -1.229796,0.444093 -1.981338,1.400601 -0.717381,0.956508 -0.717381,2.39127 0,1.400601 0.649059,2.322948 0.68322,0.922347 1.70805,1.503084 1.058991,0.546576 2.117982,0.956508 1.058991,0.375771 1.844694,0.751542 0.785704,0.34161 1.229794,0.854025 0.4441,0.478254 0.4441,1.161474 0,0.785703 -0.58074,1.229796 -0.54658,0.444093 -1.537247,0.444093 -0.785703,0 -1.571406,-0.273288 -0.785703,-0.307449 -1.571406,-0.888186 -0.751542,-0.614898 -1.503084,-1.434762 z"
           id="path520" />
      </g>
    </g>
  </g>
</svg>
