<?xml version="1.0" encoding="UTF-8" standalone="no"?>
<!-- Created with Inkscape (http://www.inkscape.org/) -->

<svg
   width="75.331879mm"
   height="23.574188mm"
   viewBox="0 0 75.331879 23.574188"
   version="1.1"
   id="svg5"
   inkscape:version="1.2 (1:1.2.1+202207142221+cd75a1ee6d)"
   sodipodi:docname="zeus-logo.svg"
   xmlns:inkscape="http://www.inkscape.org/namespaces/inkscape"
   xmlns:sodipodi="http://sodipodi.sourceforge.net/DTD/sodipodi-0.dtd"
   xmlns="http://www.w3.org/2000/svg"
   xmlns:svg="http://www.w3.org/2000/svg">
  <sodipodi:namedview
     id="namedview7"
     pagecolor="#ffffff"
     bordercolor="#000000"
     borderopacity="0.25"
     inkscape:showpageshadow="2"
     inkscape:pageopacity="0.0"
     inkscape:pagecheckerboard="0"
     inkscape:deskcolor="#d1d1d1"
     inkscape:document-units="mm"
     showgrid="false"
     inkscape:zoom="2.1417558"
     inkscape:cx="656.70418"
     inkscape:cy="76.339235"
     inkscape:window-width="1920"
     inkscape:window-height="1016"
     inkscape:window-x="0"
     inkscape:window-y="27"
     inkscape:window-maximized="1"
     inkscape:current-layer="layer1" />
  <defs
     id="defs2" />
  <g
     inkscape:label="Layer 1"
     inkscape:groupmode="layer"
     id="layer1"
     transform="translate(-169.47769,-129.35581)">
    <g
       id="g879"
       inkscape:label="Logo outlines"
       inkscape:export-filename="g879.svg"
       inkscape:export-xdpi="96"
       inkscape:export-ydpi="96">
      <path
         id="path334"
         style="fill:#ffffff;stroke-width:0.0671852"
         d="m 44.763511,105.59098 v 10.00417 l 10.004163,-10.00417 z m 18.379739,0 -18.379739,18.37974 v 4.84823 h 4.620164 l 18.607798,-18.60781 v -4.62016 z m 4.848223,12.99548 -10.232485,10.23249 h 10.232485 z"
         transform="translate(124.71418,23.764829)" />
      <g
         aria-label="eus"
         id="text338"
         style="font-weight:bold;font-size:34.161px;font-family:'Libre Bodoni';-inkscape-font-specification:'Libre Bodoni Bold';letter-spacing:0.706438px;fill:#ffffff;stroke-width:2.87909"
         transform="translate(124.71418,23.764829)">
        <path
           d="m 78.309665,129.16516 q -1.776372,0 -3.347778,-0.68322 -1.537245,-0.68322 -2.73288,-1.84469 -1.161474,-1.16148 -1.810533,-2.6304 -0.649059,-1.46892 -0.649059,-3.07449 0,-1.98134 1.02483,-3.79187 1.02483,-1.84469 2.903685,-3.00617 1.878855,-1.19563 4.406769,-1.19563 2.04966,0 3.655227,0.81986 1.639728,0.81987 2.562075,2.35711 0.956508,1.50308 0.956508,3.58691 v 0.37577 H 73.424642 v -1.02483 h 7.037166 v -2.08382 q 0,-2.93785 -2.459592,-2.93785 -1.058991,0 -1.70805,0.64906 -0.649059,0.64906 -0.956508,2.22046 -0.273288,1.53725 -0.273288,4.23597 0,2.76704 0.307449,4.27012 0.307449,1.46893 1.058991,2.0155 0.751542,0.54658 2.04966,0.54658 1.810533,0 3.279456,-0.88819 1.503084,-0.88818 2.493753,-3.07449 h 1.127313 q -0.717381,2.35711 -2.630397,3.75771 -1.878855,1.4006 -4.44093,1.4006 z"
           id="path763" />
        <path
           d="m 93.286764,129.16516 q -2.083821,0 -3.347778,-1.09315 -1.229796,-1.12731 -1.229796,-2.69872 v -11.51226 h 4.714218 v 11.06817 q 0,1.4006 0.375771,1.98134 0.409932,0.58073 1.229796,0.58073 1.161474,0 2.015499,-0.85402 0.854025,-0.88819 1.332279,-2.39127 0.512415,-1.50309 0.512415,-3.34778 l 0.68322,5.12415 h -0.819864 q -0.614898,1.4006 -2.152143,2.28879 -1.503084,0.85402 -3.313617,0.85402 z m 5.602404,-0.44409 v -1.02483 h 7.412932 v 1.02483 z M 86.044632,114.37345 v -1.02483 h 7.378776 v 1.02483 z m 12.844536,13.8352 v -14.34762 h 4.714222 v 14.34762 z m -2.801202,-13.8352 v -1.02483 h 7.515424 v 1.02483 z"
           id="path765" />
        <path
           d="m 114.49299,129.131 q -1.50309,0 -2.86953,-0.47825 -1.36644,-0.47826 -2.25462,-1.26396 l -0.51242,1.33228 h -0.99067 v -5.56824 h 1.12731 l 0.20497,0.99067 q 0.34161,1.60556 1.60557,2.69871 1.26395,1.059 3.75771,1.059 1.60556,0 2.39127,-0.47826 0.7857,-0.51241 0.7857,-1.50308 0,-0.81987 -0.75154,-1.36644 -0.71738,-0.58074 -3.04033,-1.02483 -1.60557,-0.30745 -2.90369,-0.85403 -1.26395,-0.58073 -1.98133,-1.60556 -0.71738,-1.059 -0.71738,-2.80121 0,-2.63039 1.43476,-3.96267 1.46892,-1.36644 4.13348,-1.36644 1.53724,0 2.66456,0.40993 1.12731,0.40993 1.5714,1.12731 l 0.37577,-1.12731 h 0.88819 v 4.95334 h -1.19564 l -0.10248,-0.51241 q -0.37577,-1.91302 -1.29812,-2.76704 -0.88818,-0.85403 -2.90368,-0.85403 -1.57141,0 -2.39127,0.58074 -0.7857,0.54658 -0.7857,1.43476 0,0.51242 0.27328,0.92235 0.27329,0.40993 1.09316,0.7857 0.81986,0.34161 2.42543,0.68322 1.5714,0.34161 2.83536,0.92235 1.26396,0.58074 1.98134,1.60557 0.75154,0.99067 0.75154,2.69872 0,2.66455 -1.53725,3.99683 -1.53724,1.33228 -4.06515,1.33228 z"
           id="path767" />
      </g>
    </g>
  </g>
</svg>
